<svg xmlns="http://www.w3.org/2000/svg" viewBox="0 0 600 600"><title>datensatz</title><path d="M385.67,506.47a353.72,353.72,0,0,1-168.88,2.18,24.48,24.48,0,0,0-4.59-11.91,8.94,8.94,0,0,1,.93-11.78c7.45-7.54,13.23-25.6-2-68.91-15.66-44.53-36.92-51.81-51.43-50.51a9.77,9.77,0,0,1-10.5-10.74c1.49-14.29-4.73-36.08-43.81-57.54C68.12,276.79,44.53,282.33,31,291.11A32.12,32.12,0,0,1,.19,293.36C3.08,245.17,38.48,197.43,90,160.1c61.93-35.25,139.47-55.5,212.1-55.5,95.07,0,199.45,33,266,89.23,18,25.74,29.42,56.65,31.57,93.24C606.09,396.58,522.62,470.6,385.67,506.47Z" style="fill:#b37539"/><path d="M386.75,466.86a339.19,339.19,0,0,1-166.43,1c1.31-11-.6-27.4-9.19-51.83-15.66-44.53-36.92-51.81-51.43-50.51a9.77,9.77,0,0,1-10.5-10.74c1.49-14.29-4.73-36.08-43.81-57.54C68.12,276.79,44.53,282.33,31,291.11a32.16,32.16,0,0,1-10.23,4.33c-.39-1.49-.78-3-1.12-4.48C14.74,269.76,17,247.5,25,225.4,75.16,150.14,192.78,89.21,303.29,87.72c115.51-1.56,248.06,40.4,286.05,147.37a193.24,193.24,0,0,1,2.49,21.5C598,361.55,518,432.49,386.75,466.86Z" style="fill:#daa153"/><path d="M378.91,379c-67.86,17.41-138.69,13-194.63-5.88a35.1,35.1,0,0,0-20-7.64q-7.63-3.29-14.77-7a9.79,9.79,0,0,1-.33-3.68c1.49-14.29-4.73-36.08-43.81-57.54a126.68,126.68,0,0,0-24.51-10.55C66.36,225,184.48,143,299.2,135.13c100.41-6.88,222.91,28.79,234.33,110.55C542.13,307.2,481.42,352.66,378.91,379Z" style="fill:#f4dec8;opacity:0.2"/><path d="M360.26,177.42c32.69-4.46,73.57,4.52,79.15,31,4.2,19.94-14.63,36.14-47.56,47-41.38,13.64-88,1.84-98.89-21.82C283.86,213.78,321.76,182.67,360.26,177.42Z" style="fill:#f4dec8;opacity:0.2"/><path d="M213.13,485a8.94,8.94,0,0,0-.93,11.78,24.58,24.58,0,0,1,4.6,11.91q-11.62-2.68-22.92-6.1c5.91-9.13,10.38-25.94-.82-58.82-14.37-42.23-34.5-48.92-48.3-47.52a9,9,0,0,1-9.86-10.1c1.59-13.62-4.07-34.3-41-54.29-35.19-19.06-57.69-13.52-70.64-5A30.91,30.91,0,0,1,5,331.88c-.85-3-1.64-5.94-2.34-8.95A103.34,103.34,0,0,1,.19,293.36,32.12,32.12,0,0,0,31,291.11c13.53-8.78,37.12-14.32,74.39,6.15,39.08,21.46,45.3,43.25,43.81,57.54a9.77,9.77,0,0,0,10.5,10.74c14.51-1.3,35.77,6,51.43,50.51C226.36,459.36,220.58,477.42,213.13,485Z" style="fill:#ad6c36"/><path d="M101.87,174c15.2.46,17.79,3.52,14,12.6-6.2,15.05-28.31,15.62-23.36,19.11,7.84,5.52,1,19-7.54,13-9.91-7-11.85,5.41-23,6.68s-9.73-9.8-14.86-10.47c-6.08-.78-11.16-1.19-9.9-7,1.44-6.68-8.27-1.3,6.13-14.37,8.3-7.54,8.95-11.67,18.12-14.83C75.26,174,78.51,183,85.24,182.2" style="fill:#633f1c"/><path d="M532.22,311c-3.45-13.14-1.24-16.46,8.22-16.56,15.68-.15,21.86,18.5,23.87,13,3.16-8.68,17.56-7.72,14.12,1.72-4,11,8.09,8.15,12.14,17.25s-6.7,11.86-6,16.47c.81,5.48,1.73,10-4,11-6.63,1.18.89,7.52-15,0-9.18-4.35-13.21-3.41-18.52-10.09-8-10-.38-16.08-2.82-21.55" style="fill:#633f1c"/><path d="M300,82.18c12.54.18,14.7,2.64,11.65,10.1-5,12.35,10.46,12.87,8.35,20.51s-24.68,18.73-43.89,12.92c-16.85-5.11-18.3,9.63-27,4.5-12.74-7.48,3.92-9.69,1.76-12.16-6.82-7.79-12.54-.17-12.74-7.48s2.65-.44,13.73-11.63,1.87-8.49,14.88-12.34c11.52-3.41,9.64,1.56,10.56,5.27,2.37,9.52,9.53.41,12.87-3.05C293,85.85,294.79,82.11,300,82.18Z" style="fill:#633f1c"/><path d="M546.86,174c4,9.66-4.48,11.68-15,11s-8.66,10.56-15,11-16.17-11.74-12-24.69c3.82-11.94-6.63-4.83-10.18-13.46-4-9.65.1-4.27,4.48-11.68s-7.95-19.3,4.58-15.94,4,9.65,14.36,14.58,4.48-11.68,16.71,4.48c5.09,6.73-.26,6.09-1.1,9.42A7.48,7.48,0,0,0,538,167C540.72,168.28,545.4,170.49,546.86,174Z" style="fill:#633f1c"/><path d="M390.23,416.48c10.39-1.41,12.19,9.18,11,21.26s10.82,13.7,11,21.26-21.69,22.46-26.65,5.79-5.39,6.15-14.68,7.41c-10.39,1.41-4.51-1.56-12.18-9.19s-20.78,2.83-16.7-10.73,10.39-1.41,16-11.94-12.18-9.18,5.43-18.08c7.35-3.7,8.41,10.59,11.91,12.7a6.18,6.18,0,0,0,8.9-2.18C385.84,430,386.4,417,390.23,416.48Z" style="fill:#633f1c"/><path d="M439.89,320.49c-3.35,9.4-7.16,11.79-16.31,11.91-15.16.19-19.71,11.9-29.34,12.77s-18.76-12.41-6.25-28.58c11-14.18-8.26-10.56.74-18.71,13.11-11.88,11.9-.17,15.71-2.57,12.06-7.57,3.35-9.39,13.11-11.88s-.06,1.84,12.05,6.52,10.81-1.32,12.7,7.14c1.67,7.49-4.47,7.68-9.63,9.55-13.25,4.81-2.91,7.23.85,8.62C436.76,316.45,441.26,316.62,439.89,320.49Z" style="fill:#42302a"/><path d="M216.68,316.62c2,13.78-.36,16.55-9.24,14.43-14.72-3.5-18.78-23.38-21.17-18.42-3.78,7.84-17.19,3.52-13.09-5,4.78-9.91-6.82-9.94-9.78-19.88s7.39-10.15,7.17-14.87c-.26-5.6-.7-10.24,4.78-9.92,6.32.38-.14-7.64,14.09,3.54,8.2,6.45,12.07,6.46,16.43,14.3,6.56,11.79-1.13,16,.65,21.95" style="fill:#493129"/><path d="M297,231.3c-9.74,4.91-12.68-3.54-13-14.32s-11.9-7.91-13-14.32,18.12-27,24.76-14.45,4.43-7.2,13.15-11.59c9.75-4.91,4.49-.27,12.68,3.55s19.5-9.82,17.17,3.27-9.75,4.91-13.93,16,12.68,3.54-3.11,17.45c-6.58,5.8-9.24-6.09-12.82-6.66a7.86,7.86,0,0,0-8.24,5C299.66,218.16,300.62,229.49,297,231.3Z" style="fill:#633f1c"/><path d="M508,400.31c3.51-3.7,5.5-3.84,8.91-1.43,5.66,4,10.17-.5,13.94,1.68s4,11.15-4.58,15.68c-7.48,4,.51,7.4-4.79,9-7.72,2.28-4.45-3.13-6.44-3-6.28.45-3.5,3.7-7.71,2.28s.46-.88-2.89-6.45-4.32-2.27-3-6.93c1.19-4.12,3.51-2.55,5.87-2.07,6.07,1.22,2.82-2.76,1.77-4.45C508.22,403.13,506.59,401.83,508,400.31Z" style="fill:#633f1c"/></svg>