<svg xmlns="http://www.w3.org/2000/svg" viewBox="0 0 600 600"><title>extIcon</title><rect x="-0.5" y="-0.59" width="600" height="600" style="fill:#815932;stroke:#000;stroke-miterlimit:10"/><path d="M300,489.3a191.88,191.88,0,0,1-19.54-1,37.25,37.25,0,0,0-20.84-68.12h-.43a36.91,36.91,0,0,0,7-21.71,37.25,37.25,0,0,0-66.27-23.36,37.24,37.24,0,0,0-74.32-1.44A187.87,187.87,0,0,1,110.71,300c0-104.38,84.91-189.3,189.29-189.3S489.29,195.62,489.29,300,404.38,489.3,300,489.3Zm40.48-96.14a22.38,22.38,0,0,0-22.07,19.25,22.3,22.3,0,0,0,19,25.15,22.77,22.77,0,0,0,3.08.21,22.38,22.38,0,0,0,22.07-19.25,22.3,22.3,0,0,0-19-25.15A22.77,22.77,0,0,0,340.48,393.16Zm82.08-91.87a24.33,24.33,0,0,0-19.36,39,24.15,24.15,0,0,0,16.06,9.41,23.72,23.72,0,0,0,3.36.23,24.32,24.32,0,0,0,19.37-39,24.16,24.16,0,0,0-16.06-9.42A25.44,25.44,0,0,0,422.56,301.29Zm-112.4-30.24a24.33,24.33,0,0,0-19.37,39,24.15,24.15,0,0,0,16.06,9.41,23.76,23.76,0,0,0,3.37.24,24.33,24.33,0,0,0,3.3-48.43A25.29,25.29,0,0,0,310.16,271.05ZM195,265.69a22.31,22.31,0,0,0-3,44.4,21.41,21.41,0,0,0,3.09.22,22.31,22.31,0,0,0,3-44.41A22.81,22.81,0,0,0,195,265.69ZM366.33,167.8a23.11,23.11,0,0,0-3.15,46,23,23,0,0,0,3.2.22,23.21,23.21,0,0,0,22.87-19.95,23.13,23.13,0,0,0-22.92-26.28ZM229.41,163a25.14,25.14,0,1,0,24.93,28.58,25.14,25.14,0,0,0-21.45-28.34A25.33,25.33,0,0,0,229.41,163Z" style="fill:#fff"/><path d="M300,111.2a188.8,188.8,0,1,1,0,377.6c-6,0-12.08-.3-18.15-.88a37.75,37.75,0,0,0-21.7-68.25,37.75,37.75,0,0,0-59.81-45.86,37.75,37.75,0,0,0-75-2.15A188.74,188.74,0,0,1,300,111.2M229.47,213.72a25.72,25.72,0,0,0,25.36-22.12A25.63,25.63,0,0,0,233,162.7a24.93,24.93,0,0,0-3.55-.25,25.64,25.64,0,0,0-3.48,51,26.21,26.21,0,0,0,3.54.24m136.91.81a23.69,23.69,0,0,0,23.36-20.38,23.61,23.61,0,0,0-20.15-26.63A23.64,23.64,0,0,0,343,187.68a23.61,23.61,0,0,0,20.16,26.62,23.82,23.82,0,0,0,3.26.23M195.05,310.81a22.88,22.88,0,0,0,22.56-19.68,22.8,22.8,0,0,0-19.46-25.72,22.38,22.38,0,0,0-3.16-.22,22.88,22.88,0,0,0-22.56,19.68,22.82,22.82,0,0,0,19.46,25.72,24,24,0,0,0,3.16.22m115.17,9.4a24.87,24.87,0,1,0-3.44-.24,24.91,24.91,0,0,0,3.44.24m112.4,30.23a24.83,24.83,0,1,0-19.82-9.84,24.65,24.65,0,0,0,16.39,9.61,26.35,26.35,0,0,0,3.43.23m-82.09,87.83a22.81,22.81,0,0,0,3.1-45.4,23.7,23.7,0,0,0-3.15-.21,22.81,22.81,0,0,0-3.1,45.4,23.7,23.7,0,0,0,3.15.21M300,110.2c-104.82,0-189.8,85-189.8,189.8A189.24,189.24,0,0,0,126,375.83a36.74,36.74,0,0,1,73.48.69,36.75,36.75,0,1,1,58.72,44.19c.48,0,1,0,1.45,0a36.74,36.74,0,0,1,19.38,68,191.65,191.65,0,0,0,21,1.17c104.82,0,189.8-85,189.8-189.8s-85-189.8-189.8-189.8ZM229.47,212.72a24.63,24.63,0,1,1,24.37-21.25,24.73,24.73,0,0,1-24.37,21.25Zm136.91.81a22.17,22.17,0,0,1-3.13-.22,22.61,22.61,0,0,1,3.07-45,23.62,23.62,0,0,1,3.13.21,22.62,22.62,0,0,1-3.07,45ZM195.05,309.81a22.12,22.12,0,0,1-3-.21,21.77,21.77,0,1,1,3,.21Zm115.17,9.4a24.63,24.63,0,0,1-3.3-.23,23.83,23.83,0,0,1,3.24-47.43,24.6,24.6,0,0,1,3.29.23,23.83,23.83,0,0,1-3.23,47.43Zm112.4,30.23a24.46,24.46,0,0,1-3.29-.22,23.83,23.83,0,0,1,3.23-47.43,23.08,23.08,0,0,1,3.3.23,23.82,23.82,0,0,1-3.24,47.42Zm-82.09,87.83a22.2,22.2,0,0,1-3-.2,21.81,21.81,0,0,1,3-43.41,20.5,20.5,0,0,1,3,.21,21.8,21.8,0,0,1-3,43.4Z"/></svg>
