<svg xmlns="http://www.w3.org/2000/svg" viewBox="0 0 600 600"><title>Extension</title><rect x="-2.62" width="605.24" height="600" style="fill:#720f0f"/><path d="M368.61,465.34a283.28,283.28,0,0,1-135.25,1.76,19.59,19.59,0,0,0-3.68-9.55,7.16,7.16,0,0,1,.75-9.43c6-6,10.6-20.5-1.6-55.18-12.54-35.67-29.57-41.5-41.18-40.46a7.82,7.82,0,0,1-8.42-8.59c1.2-11.45-3.78-28.9-35.08-46.09-29.84-16.39-48.74-11.95-59.57-4.92a25.74,25.74,0,0,1-24.68,1.8c2.32-38.59,30.67-76.82,71.89-106.72,49.59-28.23,111.68-44.45,169.86-44.45,76.13,0,159.72,26.4,213,71.47,14.41,20.61,23.56,45.36,25.28,74.67C545.13,377.35,478.28,436.62,368.61,465.34Z" style="fill:#e2e2e2"/><path d="M369.47,433.62a271.52,271.52,0,0,1-133.28.82c1.05-8.81-.48-21.94-7.36-41.5-12.54-35.67-29.57-41.5-41.18-40.46a7.82,7.82,0,0,1-8.42-8.59c1.2-11.45-3.78-28.9-35.08-46.09-29.84-16.39-48.74-11.95-59.57-4.92a25.92,25.92,0,0,1-8.2,3.47c-.31-1.2-.62-2.39-.9-3.59-3.93-17-2.1-34.8,4.29-52.5C119.94,180,214.14,131.19,302.63,130c92.51-1.25,198.66,32.35,229.08,118a156.32,156.32,0,0,1,2,17.21C538.65,349.29,474.58,406.1,369.47,433.62Z" style="fill:#efefef"/><path d="M363.19,363.23c-54.34,13.94-111.06,10.43-155.86-4.71a28.14,28.14,0,0,0-16-6.11q-6.12-2.64-11.83-5.58a8,8,0,0,1-.27-2.94c1.2-11.45-3.78-28.9-35.08-46.09a101.71,101.71,0,0,0-19.63-8.44c-11.63-49.39,83-115.1,174.84-121.4C379.77,162.45,477.88,191,487,256.5,493.9,305.76,445.28,342.17,363.19,363.23Z" style="fill:#fff;opacity:0.2"/><path d="M348.25,201.83c26.18-3.57,58.92,3.62,63.39,24.84,3.37,16-11.71,28.94-38.09,37.64-33.13,10.92-70.5,1.47-79.19-17.48C287.08,231,317.43,206,348.25,201.83Z" style="fill:#fff;opacity:0.2"/><path d="M230.43,448.12a7.16,7.16,0,0,0-.75,9.43,19.69,19.69,0,0,1,3.69,9.55q-9.31-2.16-18.36-4.89c4.74-7.31,8.32-20.77-.65-47.11-11.51-33.81-27.63-39.17-38.68-38.05a7.24,7.24,0,0,1-7.9-8.09c1.27-10.91-3.26-27.47-32.81-43.48-28.18-15.26-46.19-10.83-56.57-4a24.74,24.74,0,0,1-14.66,4.06c-.68-2.37-1.32-4.76-1.87-7.16a82.49,82.49,0,0,1-2-23.69,25.74,25.74,0,0,0,24.68-1.8c10.83-7,29.73-11.47,59.57,4.92,31.3,17.19,36.28,34.64,35.08,46.09a7.82,7.82,0,0,0,8.42,8.59c11.61-1,28.64,4.79,41.18,40.46C241,427.62,236.4,442.08,230.43,448.12Z" style="fill:#b7b7b7"/><path d="M141.33,199.07c12.17.37,14.25,2.82,11.25,10.1-5,12-22.67,12.5-18.7,15.3,6.27,4.42.78,15.23-6,10.43-7.93-5.59-9.49,4.32-18.46,5.34s-7.79-7.85-11.9-8.38c-4.87-.63-8.94-1-7.93-5.59,1.15-5.35-6.62-1,4.91-11.51,6.65-6,7.16-9.34,14.51-11.88,11-3.81,13.65,3.39,19.05,2.78" style="fill:#720f0f"/><path d="M486,308.82c-2.77-10.52-1-13.18,6.58-13.25,12.56-.13,17.51,14.81,19.11,10.41,2.54-7,14.07-6.18,11.31,1.38-3.21,8.8,6.48,6.53,9.73,13.81s-5.37,9.5-4.82,13.2c.65,4.38,1.39,8-3.21,8.79-5.31.95.71,6-12,0-7.35-3.49-10.58-2.73-14.83-8.08-6.4-8.05-.31-12.88-2.26-17.26" style="fill:#720f0f"/><path d="M300,125.57c10,.13,11.77,2.11,9.33,8.08-4,9.89,8.37,10.31,6.69,16.43s-19.77,15-35.16,10.34c-13.49-4.09-14.65,7.72-21.65,3.61-10.2-6,3.14-7.76,1.41-9.74-5.46-6.24-10-.14-10.2-6s2.12-.36,11-9.32,1.49-6.79,11.91-9.88c9.22-2.73,7.72,1.25,8.46,4.22,1.89,7.63,7.63.33,10.3-2.44C294.37,128.5,295.83,125.51,300,125.57Z" style="fill:#720f0f"/><path d="M497.69,199.13c3.19,7.73-3.58,9.35-12,8.82s-6.93,8.46-12,8.82-12.94-9.4-9.63-19.77c3.06-9.56-5.31-3.87-8.15-10.78-3.19-7.73.08-3.42,3.58-9.35s-6.36-15.46,3.67-12.77,3.19,7.73,11.51,11.68,3.59-9.36,13.38,3.58c4.08,5.39-.21,4.88-.89,7.55a6,6,0,0,0,3.39,6.6C492.78,194.52,496.52,196.28,497.69,199.13Z" style="fill:#720f0f"/><path d="M372.26,393.28c8.32-1.13,9.76,7.35,8.84,17s8.67,11,8.85,17-17.37,18-21.34,4.64-4.32,4.92-11.76,5.93c-8.32,1.13-3.61-1.24-9.76-7.35s-16.63,2.26-13.37-8.6,8.32-1.13,12.85-9.56-9.76-7.35,4.35-14.48c5.88-3,6.73,8.48,9.54,10.17a4.94,4.94,0,0,0,7.12-1.75C368.74,404.09,369.19,393.7,372.26,393.28Z" style="fill:#720f0f"/><path d="M412,316.41c-2.68,7.53-5.73,9.44-13.06,9.53-12.14.16-15.78,9.54-23.49,10.24s-15-9.94-5-22.89c8.79-11.36-6.61-8.46.6-15,10.49-9.51,9.53-.14,12.58-2.05,9.66-6.07,2.68-7.53,10.5-9.52s-.05,1.47,9.65,5.22,8.65-1.06,10.17,5.72c1.33,6-3.58,6.15-7.71,7.65-10.61,3.85-2.33,5.79.68,6.9C409.52,313.17,413.13,313.31,412,316.41Z" style="fill:#720f0f"/><path d="M233.28,313.31c1.61,11-.29,13.25-7.41,11.56-11.78-2.81-15-18.73-17-14.76-3,6.28-13.77,2.83-10.48-4,3.83-7.94-5.46-8-7.83-15.92s5.91-8.13,5.74-11.91c-.21-4.48-.56-8.2,3.82-7.94,5.07.3-.11-6.12,11.29,2.83,6.57,5.16,9.67,5.17,13.16,11.45,5.25,9.45-.91,12.8.52,17.58" style="fill:#720f0f"/><path d="M297.62,245c-7.81,3.93-10.16-2.84-10.4-11.47s-9.53-6.34-10.4-11.47,14.51-21.62,19.83-11.57,3.55-5.77,10.54-9.28c7.8-3.94,3.59-.22,10.15,2.84s15.61-7.87,13.75,2.62-7.81,3.93-11.16,12.77,10.15,2.84-2.49,14c-5.27,4.64-7.4-4.88-10.27-5.33a6.3,6.3,0,0,0-6.59,4C299.73,234.46,300.49,243.54,297.62,245Z" style="fill:#720f0f"/><path d="M466.6,380.33c2.81-3,4.4-3.08,7.13-1.14,4.53,3.21,8.15-.4,11.17,1.34s3.16,8.93-3.67,12.56c-6,3.19.4,5.93-3.84,7.18-6.18,1.82-3.56-2.51-5.15-2.4-5,.36-2.81,3-6.18,1.82s.37-.7-2.31-5.16-3.46-1.82-2.39-5.55c1-3.3,2.81-2,4.7-1.66,4.86,1,2.26-2.2,1.41-3.56C466.75,382.59,465.44,381.55,466.6,380.33Z" style="fill:#720f0f"/></svg>